{"title":"Jeff Wayne War Of The World ~Live On Stage~ DTS 5.1.XviD 2006","uid":5310231,"size":2311869135,"categoryP":"video","categoryS":"music_videos","magnet":"?xt=urn:btih:4ba0cbd1679b8e3bf84d3f1f3c1b96d2753e4f77&amp;dn=Jeff+Wayne+War+Of+The+World+%7ELive+On+Stage%7E+DTS+5.1.XviD+2006&amp;tr=udp%3A%2F%2Ftracker.openbittorrent.com%3A80&amp;tr=udp%3A%2F%2Fopen.demonii.com%3A1337&amp;tr=udp%3A%2F%2Ftracker.coppersurfer.tk%3A6969&amp;tr=udp%3A%2F%2Fexodus.desync.com%3A6969","seeders":4,"leechers":0,"uploader":"Filmofiel","files":2,"time":1264535914,"description":"Jeff Wayne's Musical Version of The War of the Worlds is een muziekalbum uit 1978 gemaakt door de muzikant Jeff Wayne samen met andere artiesten. Het is een conceptalbum, gebaseerd op het gelijknamig boek van Herbert George Wells, en vertelt het verhaal uit dit boek begeleid door enkele muzikale nummers. Aanvankelijk werd het uitgegeven als elpee, later als een dubbel-cd. In maart 2007 bracht Universal Pictures Benelux voor het eerst een DVD uit van dit album.\n\nHet verhaal dat in twee aktes wordt opgevoerd, te weten 'De Komst van de Marsmannen' en 'De Aarde onder de Marsmannen' wordt verteld door wijlen Richard Burton. Hij wordt vergezeld door Justin Hayward (The Moody Blues), Russell Watson, Tara Blaise, Chris Thompson en Alexis James op zang. Afgezien van Alexis James, die nog relatief onbekend is, hebben de andere zangers al hun sporen verdiend in de muziek. De stemmen passen perfect bij de muziek. Het instrumentale gedeelte van de show wordt verzorgd door de Black Smoke Band en de ULLadubULLA strijkers, die zeer strak worden gedirigeerd door Jeff Wayne zelf. Het visuele aspect van de show bestaat uit een minimaal acteeroptreden van de eerdergenoemde zangers en een projectie op drie schermen die boven het podium hangen. De beelden variÃƒÂ«ren van tekeningen tot animatie en real acting. Er is veel aandacht besteed aan de beelden, die zeer treffend de sfeer van het boek weergeven. De absolute eye-catcher is de tien meter hoge vechtmachine van Mars die op het podium staat. Het optreden is op alle fronten spectaculair te noemen en doet zowel het boek als de musical eer aan. De regie is in handen van David Mallet, die de opnames zeer gevarieerd in beeld brengt. Hij switcht op de juiste momenten van close-up naar overzicht en omgekeerd.'Jeff Wayne's Musical Version of The War of the Worlds Live On Stage!' is een absolute must in de collectie van iedere muziekliefhebber.\n\nRegistratie van het concert en nederlandstalige ondertiteling, apart als .srt bestand in de torrent.\n\nAvi Info:\n\nFormat                           : AVI\nFormat/Info                      : Audio Video Interleave\nFormat profile                   : OpenDML\nFile size                        : 2.15 GiB\nDuration                         : 1h 50mn\nOverall bit rate                 : 2 798 Kbps\nMovie name                       : WAR OF THE WORLDS.Title1.DVDRip\nDirector                         : Ik\nWriting application              : Lavf51.19.0\nOriginal source form/Name        : WAR OF THE WORLDS\n\nVideo\nID                               : 0\nFormat                           : MPEG-4 Visual\nFormat profile                   : Simple@L3\nFormat settings, BVOP            : No\nFormat settings, QPel            : No\nFormat settings, GMC             : No warppoints\nFormat settings, Matrix          : Default (H.263)\nCodec ID                         : XVID\nCodec ID/Hint                    : XviD\nDuration                         : 1h 50mn\nBit rate                         : 2 014 Kbps\nWidth                            : 1 024 pixels\nHeight                           : 576 pixels\nDisplay aspect ratio             : 16:9\nFrame rate                       : 25.000 fps\nResolution                       : 8 bits\nColorimetry                      : 4:2:0\nScan type                        : Progressive\nBits/(Pixel*Frame)               : 0.137\nStream size                      : 1.55 GiB (72%)\nWriting library                  : XviD 1.1.2 (UTC 2006-11-01)\n\nAudio\nID                               : 1\nFormat                           : DTS\nFormat/Info                      : Digital Theater Systems\nCodec ID                         : 2001\nCodec ID/Info                    : Digital Theater Systems\nDuration                         : 1h 50mn\nBit rate mode                    : Constant\nBit rate                         : 755 Kbps\nChannel(s)                       : 6 channels\nChannel positions                : Front: L C R, Surround: L R, LFE\nSampling rate                    : 48.0 KHz\nResolution                       : 24 bits\nStream size                      : 594 MiB (27%)\nAlignment                        : Aligned on interleaves\nInterleave, duration             : 11 ms (0.27 video frame)\nInterleave, preload duration     : 10 ms\n\nPerformers: Richard Burton (voice), Justin Hayward, Russel Watson, Tara Blaise, Chris Thompson, Alexis James, Anna-Marie Wayne, Jeff Wayne.","torrent":{"xt":"urn:btih:4ba0cbd1679b8e3bf84d3f1f3c1b96d2753e4f77","amp;dn":"Jeff+Wayne+War+Of+The+World+%7ELive+On+Stage%7E+DTS+5.1.XviD+2006","amp;tr":["udp%3A%2F%2Ftracker.openbittorrent.com%3A80","udp%3A%2F%2Fopen.demonii.com%3A1337","udp%3A%2F%2Ftracker.coppersurfer.tk%3A6969","udp%3A%2F%2Fexodus.desync.com%3A6969"],"infoHash":"4ba0cbd1679b8e3bf84d3f1f3c1b96d2753e4f77","infoHashBuffer":{"type":"Buffer","data":[75,160,203,209,103,155,142,59,248,77,63,31,60,27,150,210,117,62,79,119]},"announce":[],"urlList":[]}}